# xmcd
#
# Track frame offsets: 
#        192
#        10300
#        16362
#        22585
#        31345
#        41955
#        49557
#        60610
#        68707
#        86192
#        104447
#        114582
#        128815
#        145095
#        161582
#        178670
#
# Disc length: 2680 seconds
#
# Revision: 2
# Processed by: cddbd v1.5.2PL0 Copyright (c) Steve Scherf et al.
# Submitted via: ExactAudioCopy v0.99pb4
#
DISCID=d00a7610
DTITLE=Bill Nelson - Map Of Dreams
DYEAR=1987
DGENRE=Ambient
TTITLE0=Legions Of The Endless Night
TTITLE1=Spinning Creatures
TTITLE2=At The Gates Of The Singing Garden
TTITLE3=Heavenly Message Number One
TTITLE4=Heavenly Message Number Two
TTITLE5=Heavenly Message Number Three
TTITLE6=Fellini's Picnic
TTITLE7=Dark Angel
TTITLE8=Infernal Regions
TTITLE9=Dance Of The Fragrant Woman
TTITLE10=The Alchemy Of Ecstacy
TTITLE11=Aphrodite Adorned
TTITLE12=The Wheel Of Fortune And The Hand Of Fate
TTITLE13=Forked Tongues, Mixed Blessings
TTITLE14=Another Tricky Mission For The Celestial Pilot
TTITLE15=Water Of Life (Transfiguration)
EXTD=
EXTT0=
EXTT1=
EXTT2=
EXTT3=
EXTT4=
EXTT5=
EXTT6=
EXTT7=
EXTT8=
EXTT9=
EXTT10=
EXTT11=
EXTT12=
EXTT13=
EXTT14=
EXTT15=
PLAYORDER=
